<svg width="335" height="248" viewBox="0 0 335 248" fill="none" xmlns="http://www.w3.org/2000/svg">
<path d="M219.808 31.269C275.682 -32.5604 396.343 5.20895 375.936 117.07L24.0952 177.795C19.0135 166.766 -18.577 79.9817 32.9466 56.3456C101.544 24.8769 126.623 137.722 219.808 31.269Z" fill="#EAF7FC" stroke="#EAF7FC" stroke-width="0.407142"/>
<path d="M21.116 192L0 198.28V234.347L110.917 248L336 204.033V192H21.116Z" fill="#E3E1E1"/>
<g filter="url(#filter0_d_7570_60637)">
<path d="M314.323 143.393L339.333 144.141C339.39 144.143 339.437 144.19 339.437 144.248L339.974 191.373C339.975 191.426 339.935 191.472 339.882 191.48L314.336 195.328C314.271 195.338 314.212 195.288 314.212 195.222V143.501C314.212 143.44 314.262 143.391 314.323 143.393Z" fill="#12466D"/>
<path d="M17.1261 190.172H8.93359V198.688L72.1018 200.951V155.246L47.5244 157.186L47.0933 191.142H26.9355V171.308H17.1261V190.172Z" fill="#1364A1"/>
<path d="M65.958 157.511V198.257" stroke="#003A71" stroke-width="0.431182"/>
<path d="M58.3037 159.343V200.09" stroke="#003A71" stroke-width="0.431182"/>
<path d="M50.9746 159.773V200.52" stroke="#003A71" stroke-width="0.431182"/>
<path d="M22.9473 174.864L22.9473 197.933" stroke="#003A71" stroke-width="0.431182"/>
<path d="M38.9004 191.896L38.9004 199.011" stroke="#003A71" stroke-width="0.431182"/>
<path d="M16.9111 174.864L16.9111 197.933" stroke="#003A71" stroke-width="0.431182"/>
<path d="M35.667 191.896L35.667 199.011" stroke="#003A71" stroke-width="0.431182"/>
<path d="M79.8638 190.604V155.893L72.1025 154.815V190.604H79.8638Z" fill="url(#paint0_linear_7570_60637)"/>
<path d="M166.1 141.771L171.489 141.232V193.406H166.1V141.771Z" fill="#C5C5C5"/>
<g filter="url(#filter1_i_7570_60637)">
<path d="M103.578 192.115L166.315 193.408V141.882L8.93359 156.254V190.001H17.1261V171.265H26.9355V191.173H46.9854L47.5244 157.212L103.578 152.634V192.115Z" fill="#F1F1F1"/>
</g>
<g filter="url(#filter2_i_7570_60637)">
<path d="M19.499 159.882V162.412C19.499 162.527 19.656 162.562 19.7046 162.457L20.6948 160.325C20.7434 160.22 20.9004 160.255 20.9004 160.37V162.331C20.9004 162.45 21.065 162.481 21.1085 162.37L21.878 160.412C21.9215 160.301 22.0861 160.332 22.0861 160.451V162.212C22.0861 162.335 22.2589 162.363 22.2965 162.245L22.9328 160.266C22.9666 160.161 23.1177 160.168 23.1408 160.276L23.6057 162.446C23.6297 162.558 23.788 162.56 23.8157 162.449L24.345 160.332C24.3727 160.222 24.531 160.224 24.5549 160.336L24.9894 162.363C25.0142 162.479 25.1801 162.476 25.2009 162.36L25.5625 160.335C25.5826 160.222 25.7402 160.214 25.7721 160.323L26.3979 162.469" stroke="#D80D1E" stroke-width="0.431182" stroke-linecap="round"/>
</g>
<g filter="url(#filter3_i_7570_60637)">
<path d="M16.4805 164.303V168.253C16.4805 168.378 16.6586 168.402 16.6921 168.282L17.5825 165.067C17.6161 164.946 17.7942 164.97 17.7942 165.096V168.113C17.7942 168.241 17.9778 168.263 18.007 168.138L18.6931 165.21C18.7223 165.086 18.9059 165.107 18.9059 165.235V167.911C18.9059 168.042 19.0949 168.06 19.1195 167.932L19.6882 164.966C19.7113 164.845 19.8855 164.851 19.901 164.973L20.323 168.274C20.3389 168.398 20.5181 168.4 20.5366 168.276L21.0143 165.073C21.0328 164.949 21.212 164.951 21.2279 165.075L21.6188 168.133C21.6351 168.26 21.8194 168.258 21.833 168.131L22.1593 165.068C22.1725 164.943 22.3513 164.938 22.3727 165.061L22.9482 168.368" stroke="#D80D1E" stroke-width="0.431182" stroke-linecap="round"/>
</g>
<g filter="url(#filter4_i_7570_60637)">
<path d="M22.9473 164.734V168.253C22.9473 168.378 23.1254 168.402 23.1589 168.282L24.0493 165.067C24.0828 164.946 24.261 164.97 24.261 165.096V168.113C24.261 168.241 24.4445 168.263 24.4738 168.138L25.1599 165.21C25.1891 165.086 25.3727 165.107 25.3727 165.235V167.911C25.3727 168.042 25.5617 168.06 25.5863 167.932L26.155 164.966C26.1781 164.845 26.3523 164.851 26.3678 164.973L26.7898 168.274C26.8057 168.398 26.9849 168.4 27.0034 168.276L27.4811 165.073C27.4996 164.949 27.6788 164.951 27.6947 165.075L28.0856 168.133C28.1019 168.26 28.2862 168.258 28.2998 168.131L28.6261 165.068C28.6393 164.943 28.8181 164.938 28.8395 165.061L29.415 168.368" stroke="#D80D1E" stroke-width="0.431182" stroke-linecap="round"/>
</g>
<rect width="20.4812" height="40.5312" transform="translate(131.605 149.641)" fill="#015489"/>
<path d="M152.087 149.641V190.172H131.605V150.826L152.087 149.641Z" fill="#1364A1"/>
<path d="M132.898 151.366H141.738" stroke="#002356" stroke-width="0.646774"/>
<path d="M132.898 173.14H141.738" stroke="#002356" stroke-width="0.646774"/>
<path d="M132.898 187.801H142.6" stroke="#002356" stroke-width="0.646774"/>
<path d="M131.605 153.091H144.972" stroke="#002356" stroke-width="0.646774"/>
<path d="M131.605 174.864H144.972" stroke="#002356" stroke-width="0.646774"/>
<path d="M131.605 189.525H146.05" stroke="#002356" stroke-width="0.646774"/>
<path d="M132.898 159.558H152.086" stroke="#002356" stroke-width="0.646774"/>
<path d="M132.898 181.333H152.086" stroke="#002356" stroke-width="0.646774"/>
<path d="M223.448 207.314L223.017 145.331L271.417 147.164L270.77 199.66L223.448 207.314Z" fill="#1364A1"/>
<path d="M171.706 206.34V193.404H183.995V205.234V206.34H180.438H171.706Z" fill="#015489"/>
<path d="M223.017 194.702L216.549 195.241V208.608L223.017 207.422V194.702Z" fill="#024275"/>
<path d="M220.322 126.79L220.214 92.2949L345.041 116.441V139.617L220.322 126.79Z" fill="url(#paint1_linear_7570_60637)"/>
<path d="M345.257 139.615L220.322 126.787L220.214 132.069L345.257 143.172V139.615Z" fill="#00A3E0"/>
<path d="M220.322 126.787L11.1982 151.149V154.491L220.214 132.069L220.322 126.787Z" fill="#00A3E0"/>
<g filter="url(#filter5_d_7570_60637)">
<path d="M216.549 195.24V136.923L220.214 136.384L275.082 139.51V189.958H270.339V147.487L223.017 145.331V194.701L216.549 195.24Z" fill="white"/>
</g>
<g filter="url(#filter6_d_7570_60637)">
<path d="M345.041 143.172L220.214 132.069V136.597L345.041 143.172Z" fill="white"/>
</g>
<path d="M270.339 199.659V189.957H275.082L275.19 200.305L270.339 199.659Z" fill="#024275"/>
<g filter="url(#filter7_i_7570_60637)">
<path d="M171.49 141.233L216.764 137.029L216.549 195.239H210.728V145.006L183.995 146.623V193.514H171.49V141.233Z" fill="#D9D9D9"/>
</g>
<path d="M184.211 205.264V146.623L210.621 145.114V206.666L184.211 205.264Z" fill="#1364A1" stroke="#164D79" stroke-width="0.215591"/>
<path d="M186.15 174.219H205.337M189.491 175.62H208.679M189.491 179.501H208.679M186.15 185.322H205.337M188.737 184.028H207.924M185.826 186.615H205.014M189.168 182.735H208.355" stroke="#407FB2" stroke-width="0.646774"/>
<path d="M189.492 165.273H204.691" stroke="#002356" stroke-width="0.646774"/>
<path d="M196.93 166.458H207.494" stroke="#002356" stroke-width="0.646774"/>
<path d="M185.719 171.199H197.145" stroke="#002356" stroke-width="0.646774"/>
<path d="M184.211 172.492H201.458" stroke="#002356" stroke-width="0.646774"/>
<path d="M185.719 177.668H210.512" stroke="#002356" stroke-width="0.646774"/>
<path d="M186.15 161.716H196.714" stroke="#002356" stroke-width="0.646774"/>
<path d="M189.384 192.976H201.241" stroke="#001E4C" stroke-width="0.646774"/>
<path d="M199.732 195.131L208.356 195.131" stroke="#001C4F" stroke-width="0.646774"/>
<path d="M186.15 195.131L193.265 195.131" stroke="#41698D" stroke-width="0.646774"/>
<path d="M185.504 193.837L200.164 193.837" stroke="#1F4778" stroke-width="0.646774"/>
<path d="M189.384 199.012L202.104 199.012" stroke="#001F41" stroke-width="0.646774"/>
<path d="M189.384 200.307L200.163 200.307" stroke="#001F41" stroke-width="0.646774"/>
<path d="M183.994 204.188L196.498 204.188" stroke="#001F41" stroke-width="0.646774"/>
<path d="M189.384 202.246L197.145 202.246" stroke="#456F9A" stroke-width="0.646774"/>
<path d="M190.679 203.539L196.5 203.539" stroke="#456F9A" stroke-width="0.646774"/>
<path d="M189.384 203.539L191.324 203.539" stroke="#1F5178" stroke-width="0.646774"/>
<path d="M201.242 204.188L204.907 204.188" stroke="#436D9A" stroke-width="0.646774"/>
<path d="M208.571 206.126L212.236 206.126" stroke="#406491" stroke-width="0.646774"/>
<path d="M207.278 201.6L210.943 201.6" stroke="#4870A1" stroke-width="0.646774"/>
<path d="M192.401 155.463H202.965" stroke="#002356" stroke-width="0.646774"/>
<path d="M193.266 150.288H199.949" stroke="#002356" stroke-width="0.646774"/>
<path d="M201.458 149.641H205.123" stroke="#002356" stroke-width="0.646774"/>
<path d="M201.025 148.35H207.062" stroke="#001F48" stroke-width="0.646774"/>
<path d="M184.211 153.521H190.247" stroke="#00224F" stroke-width="0.646774"/>
<path d="M185.504 152.228H188.953" stroke="#00224F" stroke-width="0.646774"/>
<path d="M185.504 156.325H191.325" stroke="#00234A" stroke-width="0.646774"/>
<path d="M184.211 158.695H190.032" stroke="#00234A" stroke-width="0.646774"/>
<path d="M201.025 160.638L209.002 160.638" stroke="#00234A" stroke-width="0.646774"/>
<path d="M197.146 154.168L201.458 154.168" stroke="#00234A" stroke-width="0.646774"/>
<path d="M192.187 155.463L203.182 155.463" stroke="#002356" stroke-width="0.646774"/>
<path d="M166.1 206.341V193.514H171.705V206.341H166.1Z" fill="#033761"/>
<path d="M313.949 195.249C313.984 178.141 314.034 143.537 313.949 141.988L275.189 141.665L275.401 200.306L313.949 195.249Z" fill="#1364A1" stroke="#024B83" stroke-width="0.215591"/>
<path d="M298.473 197.396L339.974 191.467" stroke="#000F30" stroke-width="0.646774"/>
<g filter="url(#filter8_d_7570_60637)">
<path d="M274.866 141.879V139.508L339.975 142.742V143.927L314.858 143.281L274.866 141.879Z" fill="#908A93"/>
</g>
<path d="M79.6482 190.605H72.1025V201.062L79.6482 200.415V190.605Z" fill="#12466D"/>
<path d="M101.962 202.785V154.061L103.579 153.846L103.687 192.221L166.1 193.514V206.342L101.962 202.785Z" fill="#1364A1"/>
<path d="M98.8359 199.658L98.8359 154.384" stroke="black" stroke-width="0.431182"/>
<path d="M101.962 154.168L79.7562 156.432L79.6484 200.412L101.962 199.981V154.168Z" fill="#071E3D"/>
<rect width="22.2059" height="45.9209" transform="translate(79.8643 154.168)" fill="#12466D"/>
<path d="M79.8643 199.982V156.325" stroke="black" stroke-width="0.431182"/>
<path d="M91.6143 199.874L91.6143 154.815" stroke="black" stroke-width="0.431182"/>
<path d="M85.793 199.874V155.678" stroke="black" stroke-width="0.431182"/>
<path d="M97.4346 199.873L97.4346 154.168" stroke="black" stroke-width="0.431182"/>
<path d="M99.0527 199.873L99.0527 154.168" stroke="black" stroke-width="0.431182"/>
<path d="M82.7744 199.982V156.325" stroke="black" stroke-width="0.431182"/>
<path d="M94.417 199.874L94.417 154.815" stroke="black" stroke-width="0.431182"/>
<path d="M88.5967 199.873L88.5967 155.03" stroke="black" stroke-width="0.431182"/>
<path d="M81.5889 199.875V156.325" stroke="black" stroke-width="0.431182"/>
<path d="M93.3389 199.874L93.3389 154.815" stroke="black" stroke-width="0.431182"/>
<path d="M87.3018 199.874L87.3018 155.678" stroke="black" stroke-width="0.431182"/>
<path d="M84.499 199.874V155.678" stroke="black" stroke-width="0.431182"/>
<path d="M96.1416 199.875L96.1416 154.601" stroke="black" stroke-width="0.431182"/>
<path d="M90.3203 199.874L90.3203 154.815" stroke="black" stroke-width="0.431182"/>
<path d="M100.561 200.089L100.561 154.384" stroke="black" stroke-width="0.431182"/>
<path d="M101.639 200.089L101.639 154.384" stroke="black" stroke-width="0.431182"/>
<path d="M103.579 152.66L72.1025 155.247L79.8638 156.433L103.579 154.061V152.66Z" fill="#999999"/>
<path d="M79.6484 164.626L101.962 162.362" stroke="black" stroke-width="0.431182"/>
<path d="M79.6484 166.996L101.962 164.732" stroke="black" stroke-width="0.431182"/>
<path d="M79.8643 188.556L102.178 186.292" stroke="black" stroke-width="0.431182"/>
<path d="M79.6484 191.789L101.962 189.525" stroke="black" stroke-width="0.431182"/>
<path d="M220.322 99.8408L11.0908 135.38V151.152L220.322 126.79V99.8408Z" fill="white" stroke="#CCCCCC" stroke-width="0.215591"/>
<g filter="url(#filter9_d_7570_60637)">
<path d="M176.363 121.731C176.25 121.432 176.084 121.17 175.878 120.962C175.659 120.745 175.414 120.57 175.152 120.443C174.861 120.301 174.565 120.18 174.263 120.08C173.821 119.947 173.39 119.769 172.973 119.548C172.66 119.374 172.516 119.126 172.526 118.79C172.522 118.632 172.555 118.476 172.621 118.34C172.688 118.204 172.785 118.095 172.9 118.027C173.21 117.857 173.548 117.784 173.883 117.812C174.242 117.814 174.596 117.903 174.926 118.075C175.193 118.218 175.438 118.417 175.651 118.663L175.691 118.711L176.504 117.513L176.468 117.471C176.155 117.115 175.791 116.836 175.394 116.647C174.92 116.431 174.419 116.32 173.912 116.319C173.577 116.308 173.241 116.353 172.913 116.454C172.605 116.546 172.311 116.698 172.041 116.906C171.785 117.103 171.566 117.366 171.399 117.678C171.23 118.009 171.138 118.39 171.132 118.779C171.113 119.145 171.17 119.511 171.297 119.84C171.415 120.13 171.58 120.388 171.781 120.596C171.988 120.809 172.22 120.981 172.469 121.106C172.721 121.233 172.98 121.338 173.244 121.42C173.606 121.539 173.911 121.648 174.153 121.745C174.354 121.819 174.547 121.923 174.728 122.054C174.848 122.137 174.948 122.26 175.017 122.408C175.074 122.553 175.099 122.714 175.091 122.876C175.09 123.04 175.049 123.201 174.972 123.335C174.895 123.47 174.787 123.572 174.662 123.628C174.321 123.8 173.955 123.876 173.589 123.85C173.194 123.849 172.803 123.747 172.442 123.552C172.129 123.377 171.846 123.128 171.609 122.819L171.571 122.769L170.669 123.92L170.701 123.965C171.32 124.849 172.286 125.316 173.573 125.354C173.936 125.367 174.299 125.323 174.655 125.223C174.983 125.132 175.298 124.974 175.585 124.755C175.85 124.55 176.076 124.275 176.246 123.95C176.42 123.608 176.515 123.214 176.521 122.812C176.539 122.44 176.485 122.069 176.363 121.731Z" fill="#D80D1E"/>
</g>
<g filter="url(#filter10_d_7570_60637)">
<path d="M182.825 121.764L182.786 121.821C182.571 122.127 182.304 122.369 182.005 122.53C181.672 122.707 181.313 122.79 180.953 122.772C180.65 122.77 180.352 122.684 180.082 122.519C179.811 122.353 179.575 122.114 179.391 121.818C179.213 121.529 179.079 121.201 178.995 120.851C178.907 120.492 178.868 120.116 178.879 119.739C178.887 119.357 178.947 118.978 179.055 118.619C179.159 118.273 179.313 117.954 179.508 117.675C179.701 117.405 179.939 117.19 180.206 117.045C180.497 116.891 180.812 116.82 181.126 116.835C181.474 116.835 181.816 116.936 182.125 117.129C182.4 117.311 182.64 117.564 182.827 117.873L182.862 117.93L183.828 116.836L183.796 116.788C183.493 116.338 183.117 115.97 182.693 115.71C182.024 115.303 181.267 115.164 180.526 115.311C179.785 115.457 179.095 115.883 178.549 116.53C178.217 116.935 177.95 117.417 177.764 117.946C177.57 118.501 177.462 119.095 177.447 119.696C177.424 120.318 177.491 120.939 177.645 121.529C177.781 122.072 178.011 122.57 178.318 122.989C178.625 123.408 179.002 123.739 179.424 123.957C179.892 124.204 180.395 124.334 180.906 124.341C181.441 124.37 181.975 124.251 182.472 123.992C182.907 123.758 183.301 123.417 183.629 122.989L183.662 122.946L182.825 121.764Z" fill="#D80D1E"/>
</g>
<g filter="url(#filter11_d_7570_60637)">
<path d="M191.156 117.051C190.994 116.511 190.751 116.016 190.44 115.592C190.126 115.165 189.746 114.82 189.322 114.578C188.407 114.074 187.365 114.043 186.422 114.491C185.985 114.707 185.587 115.028 185.25 115.437C184.919 115.845 184.65 116.325 184.457 116.852C184.06 117.963 184.022 119.217 184.351 120.35C184.512 120.888 184.751 121.383 185.059 121.81C185.37 122.239 185.748 122.584 186.172 122.825C187.086 123.329 188.128 123.36 189.071 122.912C189.509 122.695 189.909 122.374 190.248 121.966C190.763 121.336 191.123 120.538 191.284 119.666C191.444 118.794 191.4 117.886 191.156 117.052L191.156 117.051ZM189.768 119.869C189.663 120.215 189.506 120.534 189.306 120.81C189.105 121.083 188.862 121.305 188.592 121.46C188.3 121.624 187.983 121.702 187.664 121.687C187.348 121.684 187.038 121.587 186.759 121.405C186.501 121.229 186.273 120.991 186.09 120.704C185.905 120.418 185.766 120.09 185.679 119.738C185.59 119.382 185.551 119.009 185.562 118.635C185.574 118.258 185.635 117.885 185.745 117.532C185.85 117.186 186.007 116.867 186.206 116.591C186.407 116.317 186.65 116.096 186.921 115.941C187.213 115.777 187.531 115.699 187.849 115.714C188.165 115.717 188.475 115.814 188.753 115.996C189.014 116.171 189.244 116.409 189.429 116.697C189.614 116.986 189.754 117.317 189.84 117.673C189.927 118.026 189.966 118.395 189.956 118.766C189.943 119.143 189.879 119.516 189.768 119.869Z" fill="#D80D1E"/>
</g>
<g filter="url(#filter12_d_7570_60637)">
<path d="M160.112 122.33L162.951 122.414L162.844 125.988C162.518 126.333 162.147 126.607 161.747 126.797C161.297 127.025 160.723 127.129 160.03 127.109C159.508 127.104 158.993 126.97 158.516 126.714C158.095 126.484 157.717 126.148 157.406 125.728C157.103 125.312 156.873 124.822 156.731 124.289C156.578 123.721 156.511 123.122 156.534 122.521C156.548 121.914 156.655 121.315 156.848 120.755C157.029 120.222 157.293 119.736 157.624 119.327C157.956 118.918 158.35 118.595 158.782 118.377C159.246 118.143 159.742 118.035 160.24 118.057C160.555 118.062 160.869 118.115 161.172 118.217C161.439 118.309 161.696 118.44 161.937 118.608C162.158 118.764 162.36 118.956 162.54 119.178C162.71 119.392 162.862 119.626 162.996 119.876L162.039 120.872C161.844 120.488 161.59 120.154 161.293 119.89C160.968 119.626 160.586 119.488 160.195 119.494C159.878 119.479 159.562 119.556 159.272 119.72C159.002 119.875 158.76 120.097 158.561 120.373C158.356 120.657 158.197 120.986 158.092 121.343C157.979 121.722 157.917 122.122 157.906 122.525C157.888 122.954 157.937 123.382 158.05 123.786C158.153 124.146 158.313 124.476 158.52 124.758C158.723 125.031 158.969 125.247 159.244 125.394C159.522 125.546 159.821 125.627 160.126 125.635C160.762 125.654 161.262 125.479 161.627 125.109L161.668 123.763L160.078 123.716L160.112 122.33Z" fill="#D80D1E"/>
</g>
<g filter="url(#filter13_d_7570_60637)">
<path d="M169.683 125.493L169.832 120.542C169.889 118.644 168.903 117.448 167.087 117.394C165.313 117.341 164.431 118.249 164.308 118.367L164.271 118.403L164.899 119.621L164.942 119.584C165.485 119.179 165.919 118.835 166.837 118.862C167.755 118.889 168.509 119.194 168.483 120.59L168.476 120.821C168.476 120.821 167.56 120.679 166.838 120.657C164.777 120.595 163.86 121.975 163.809 123.682C163.754 125.513 164.849 126.383 166.119 126.421C167.179 126.453 167.937 125.939 168.358 125.361L168.357 126.255L169.677 126.294L169.679 126.227C169.673 126.026 169.675 125.779 169.683 125.493ZM168.415 123.105C168.38 124.291 167.402 125.054 166.516 125.028C165.63 125.001 165.167 124.533 165.193 123.668C165.232 122.35 166.052 122.002 166.953 122.029C167.453 122.049 167.95 122.108 168.443 122.205L168.415 123.105Z" fill="#D80D1E"/>
</g>
<g filter="url(#filter14_d_7570_60637)">
<path d="M146.301 126.452C146.548 127.043 147.28 127.605 148.002 127.662C149.458 127.778 150.685 126.599 150.78 125.411C150.812 125.011 150.485 124.631 149.53 124.941C148.802 125.12 146.301 126.452 146.301 126.452ZM154.784 124.384C154.408 129.113 151.144 132.705 147.597 132.424C145.901 132.296 144.342 131.289 143.259 129.624C143.101 129.376 142.97 129.096 143.009 128.747C143.044 128.312 143.408 128.054 143.687 128.076C143.865 128.091 144.015 128.271 144.129 128.448C144.558 129.162 145.099 129.746 145.716 130.165C146.333 130.584 147.014 130.83 147.718 130.886C150.731 131.125 153.26 128.165 153.57 124.271C153.878 120.41 151.812 117.068 148.876 116.835C148.178 116.782 147.473 116.911 146.801 117.215C146.129 117.519 145.504 117.992 144.96 118.606C144.417 119.221 143.966 119.965 143.634 120.796C143.302 121.627 143.095 122.529 143.024 123.451C142.974 124.237 142.978 125.785 143.763 125.847C144.042 125.869 144.36 125.709 144.596 125.632C144.46 124.966 144.412 124.268 144.454 123.57C144.691 120.589 146.639 118.322 148.719 118.487C150.087 118.595 151.042 119.394 151.605 121.121C151.628 121.188 151.64 121.26 151.641 121.335C151.641 121.352 151.639 121.37 151.634 121.387C151.629 121.403 151.621 121.419 151.612 121.431C151.602 121.444 151.59 121.454 151.577 121.46C151.564 121.466 151.551 121.468 151.537 121.467C151.491 121.457 151.449 121.427 151.419 121.382C150.626 120.444 149.825 120.111 148.902 120.037C147.167 119.9 145.846 121.379 145.703 123.656C145.661 124.133 145.699 124.612 145.814 125.058C146.29 124.844 149.043 123.244 150.433 123.355C151.384 123.43 152.032 124.07 151.921 125.474C151.753 127.579 149.866 129.365 147.853 129.205C146.613 129.106 145.689 128.331 145.053 127.081C144.749 127.226 144.205 127.503 143.762 127.467C142.071 127.333 141.654 125.298 141.807 123.381C141.896 122.256 142.151 121.155 142.559 120.141C142.967 119.128 143.52 118.221 144.185 117.473C144.85 116.724 145.615 116.149 146.436 115.78C147.257 115.411 148.119 115.256 148.971 115.322C149.823 115.389 150.649 115.676 151.402 116.168C152.156 116.66 152.821 117.347 153.361 118.189C153.901 119.031 154.304 120.013 154.548 121.077C154.792 122.142 154.872 123.269 154.784 124.394L154.784 124.384Z" fill="#1E5B8F"/>
</g>
<g filter="url(#filter15_d_7570_60637)">
<path d="M34.4528 141.441C34.3994 141.258 34.3209 141.096 34.2228 140.969C34.1182 140.836 34.0011 140.729 33.8755 140.652C33.7366 140.565 33.5945 140.491 33.4499 140.431C33.2383 140.351 33.0317 140.243 32.8322 140.108C32.6825 140.001 32.6142 139.849 32.6204 139.642C32.6189 139.544 32.6355 139.448 32.668 139.363C32.7006 139.279 32.7476 139.212 32.8033 139.169C32.953 139.063 33.1155 139.016 33.2768 139.032C33.4493 139.032 33.6191 139.086 33.7767 139.191C33.9046 139.278 34.0216 139.399 34.1227 139.551L34.1417 139.58L34.5376 138.837L34.5205 138.811C34.3714 138.593 34.1975 138.422 34.0076 138.307C33.7808 138.176 33.5403 138.109 33.2969 138.11C33.1355 138.105 32.9738 138.134 32.8161 138.198C32.6678 138.256 32.5256 138.351 32.3948 138.48C32.271 138.603 32.1646 138.767 32.0832 138.96C32.0006 139.165 31.9547 139.4 31.9507 139.641C31.9398 139.867 31.9655 140.092 32.0253 140.295C32.0811 140.474 32.1592 140.632 32.255 140.76C32.3534 140.89 32.4642 140.996 32.5836 141.072C32.704 141.149 32.828 141.213 32.9545 141.262C33.1282 141.334 33.2745 141.4 33.3905 141.459C33.4868 141.504 33.579 141.567 33.6652 141.648C33.7228 141.699 33.7704 141.774 33.8029 141.865C33.8296 141.954 33.8412 142.054 33.8366 142.154C33.8356 142.255 33.8149 142.354 33.7774 142.438C33.74 142.521 33.6875 142.585 33.6274 142.619C33.4628 142.727 33.2864 142.776 33.1108 142.761C32.9206 142.762 32.7335 142.701 32.5607 142.582C32.4107 142.475 32.2758 142.322 32.1633 142.132L32.1454 142.102L31.707 142.816L31.722 142.844C32.0161 143.387 32.4785 143.671 33.0967 143.69C33.2711 143.696 33.446 143.668 33.6172 143.604C33.7754 143.547 33.9272 143.448 34.0663 143.311C34.1944 143.184 34.304 143.013 34.3872 142.812C34.4723 142.6 34.5196 142.357 34.524 142.108C34.5343 141.879 34.5099 141.65 34.4528 141.441Z" fill="#D80D1E"/>
</g>
<g filter="url(#filter16_d_7570_60637)">
<path d="M37.5583 141.437L37.5394 141.473C37.4349 141.662 37.3056 141.813 37.1612 141.914C37.0005 142.024 36.8274 142.077 36.6545 142.067C36.5089 142.067 36.3662 142.015 36.2368 141.914C36.1075 141.813 35.9949 141.667 35.9074 141.485C35.8231 141.307 35.76 141.105 35.7214 140.889C35.6804 140.668 35.6631 140.436 35.6702 140.203C35.6756 139.967 35.7057 139.733 35.7592 139.511C35.8108 139.297 35.8858 139.099 35.9807 138.927C36.0748 138.759 36.1901 138.625 36.3186 138.535C36.4593 138.439 36.6108 138.393 36.762 138.402C36.9292 138.4 37.0932 138.461 37.2409 138.579C37.3724 138.69 37.4865 138.845 37.5753 139.035L37.5916 139.07L38.0605 138.391L38.0451 138.362C37.9013 138.085 37.7224 137.859 37.5196 137.701C37.1995 137.452 36.8366 137.369 36.4798 137.463C36.123 137.556 35.7896 137.822 35.5247 138.224C35.3632 138.475 35.233 138.773 35.1416 139.101C35.0459 139.444 34.9918 139.811 34.9822 140.183C34.9684 140.567 34.998 140.95 35.0695 141.313C35.1329 141.648 35.2412 141.954 35.3871 142.212C35.5329 142.469 35.7129 142.672 35.9147 142.805C36.1386 142.956 36.38 143.034 36.6254 143.036C36.8823 143.052 37.1398 142.976 37.3793 142.814C37.5897 142.668 37.7805 142.456 37.9398 142.19L37.9559 142.164L37.5583 141.437Z" fill="#D80D1E"/>
</g>
<g filter="url(#filter17_d_7570_60637)">
<path d="M41.5806 138.494C41.5051 138.162 41.3905 137.857 41.2426 137.596C41.0933 137.334 40.912 137.123 40.7093 136.975C40.2719 136.667 39.771 136.653 39.316 136.933C39.1052 137.068 38.9124 137.268 38.7488 137.522C38.5878 137.775 38.4565 138.072 38.3616 138.399C38.1663 139.086 38.143 139.86 38.2967 140.559C38.3715 140.89 38.4847 141.195 38.6305 141.457C38.7784 141.72 38.9589 141.932 39.1613 142.079C39.5986 142.387 40.0995 142.402 40.5546 142.121C40.7658 141.985 40.9594 141.785 41.1243 141.532C41.3742 141.141 41.5503 140.647 41.6312 140.108C41.7121 139.569 41.6945 139.009 41.5805 138.495L41.5806 138.494ZM40.9022 140.24C40.8501 140.454 40.7734 140.651 40.6762 140.822C40.5784 140.992 40.4607 141.13 40.3302 141.227C40.1893 141.329 40.0363 141.378 39.8834 141.37C39.7314 141.37 39.5828 141.311 39.4497 141.2C39.326 141.093 39.2177 140.947 39.1308 140.77C39.0432 140.594 38.9775 140.392 38.9372 140.175C38.896 139.956 38.8786 139.726 38.8857 139.495C38.8927 139.262 38.9239 139.032 38.9781 138.813C39.0301 138.599 39.1065 138.401 39.2036 138.231C39.3013 138.061 39.419 137.923 39.5496 137.826C39.6907 137.724 39.8438 137.674 39.9969 137.682C40.1487 137.683 40.2972 137.741 40.4301 137.853C40.5548 137.96 40.6642 138.106 40.752 138.283C40.8401 138.46 40.9057 138.664 40.9455 138.883C40.9859 139.101 41.0034 139.329 40.9971 139.558C40.9891 139.791 40.957 140.021 40.9022 140.24Z" fill="#D80D1E"/>
</g>
<g filter="url(#filter18_d_7570_60637)">
<path d="M26.6399 141.879L28.0042 141.92L27.9379 144.126C27.7798 144.341 27.6003 144.511 27.4075 144.63C27.1902 144.773 26.9139 144.84 26.5809 144.83C26.33 144.829 26.0832 144.748 25.8551 144.592C25.6533 144.452 25.473 144.246 25.3253 143.988C25.1814 143.733 25.073 143.431 25.0068 143.102C24.9356 142.752 24.906 142.383 24.9193 142.012C24.9288 141.637 24.9825 141.267 25.0774 140.92C25.1668 140.59 25.2955 140.289 25.4562 140.035C25.6176 139.782 25.8082 139.581 26.0168 139.444C26.2405 139.298 26.4798 139.229 26.7186 139.241C26.8703 139.242 27.0207 139.274 27.1663 139.336C27.2943 139.391 27.4172 139.471 27.5323 139.574C27.6376 139.669 27.7341 139.787 27.8195 139.923C27.9003 140.055 27.9728 140.198 28.0359 140.353L27.5719 140.971C27.4796 140.735 27.3593 140.53 27.2174 140.368C27.0623 140.206 26.8793 140.123 26.6915 140.128C26.5393 140.12 26.3869 140.169 26.2468 140.272C26.1163 140.368 25.999 140.507 25.9023 140.678C25.8027 140.853 25.725 141.057 25.6732 141.278C25.6174 141.513 25.5855 141.76 25.5789 142.009C25.5683 142.273 25.59 142.538 25.6427 142.786C25.6909 143.008 25.7664 143.212 25.8648 143.385C25.961 143.552 26.0785 143.685 26.2099 143.775C26.3429 143.867 26.4867 143.916 26.6332 143.919C26.9388 143.928 27.1799 143.818 27.3567 143.589L27.3817 142.758L26.6178 142.735L26.6399 141.879Z" fill="#D80D1E"/>
</g>
<g filter="url(#filter19_d_7570_60637)">
<path d="M31.2269 143.795L31.3187 140.738C31.3539 139.567 30.8846 138.832 30.0122 138.806C29.1597 138.781 28.732 139.345 28.6727 139.418L28.6547 139.44L28.9513 140.19L28.9723 140.167C29.2348 139.915 29.4451 139.7 29.8861 139.713C30.3271 139.727 30.688 139.912 30.6698 140.773L30.6655 140.916C30.6655 140.916 30.2261 140.832 29.8793 140.821C28.8889 140.792 28.4427 141.647 28.411 142.702C28.3771 143.832 28.8998 144.365 29.5099 144.383C30.0192 144.398 30.3856 144.077 30.5905 143.719L30.5862 144.271L31.2207 144.29L31.222 144.248C31.2196 144.124 31.2216 143.972 31.2269 143.795ZM30.6273 142.326C30.6053 143.059 30.1323 143.534 29.7065 143.521C29.2808 143.508 29.0601 143.221 29.0761 142.687C29.1005 141.873 29.496 141.655 29.9288 141.668C30.1688 141.678 30.4076 141.712 30.6439 141.771L30.6273 142.326Z" fill="#D80D1E"/>
</g>
<g filter="url(#filter20_d_7570_60637)">
<path d="M19.9855 144.482C20.1016 144.846 20.4515 145.19 20.7982 145.223C21.4973 145.288 22.0922 144.555 22.1425 143.822C22.1594 143.574 22.0037 143.341 21.5438 143.537C21.1932 143.65 19.9855 144.482 19.9855 144.482ZM24.0713 143.171C23.8711 146.092 22.2875 148.323 20.5838 148.164C19.7693 148.092 19.0241 147.477 18.5103 146.453C18.4354 146.301 18.3736 146.129 18.3941 145.913C18.4125 145.644 18.5885 145.484 18.7225 145.496C18.8078 145.504 18.8794 145.615 18.9333 145.724C19.137 146.163 19.3941 146.521 19.689 146.777C19.9839 147.033 20.3104 147.182 20.6484 147.214C22.0958 147.349 23.3233 145.512 23.4882 143.106C23.6517 140.722 22.6726 138.667 21.2623 138.535C20.9272 138.505 20.5879 138.588 20.2637 138.778C19.9395 138.969 19.6369 139.263 19.3732 139.645C19.1095 140.026 18.8898 140.487 18.7268 141.002C18.5637 141.516 18.4605 142.074 18.4231 142.643C18.3954 143.129 18.3912 144.084 18.7684 144.12C18.9024 144.132 19.0559 144.032 19.1696 143.984C19.1068 143.572 19.0866 143.142 19.1097 142.711C19.2359 140.87 20.1811 139.462 21.1801 139.555C21.8371 139.617 22.293 140.106 22.5567 141.17C22.5671 141.211 22.5726 141.256 22.5727 141.302C22.5731 141.312 22.5719 141.323 22.5695 141.334C22.567 141.344 22.5632 141.353 22.5584 141.361C22.5537 141.369 22.548 141.375 22.5418 141.379C22.5356 141.383 22.5291 141.384 22.5227 141.384C22.5005 141.378 22.4805 141.359 22.466 141.331C22.089 140.756 21.7054 140.553 21.2617 140.512C20.4286 140.434 19.7878 141.352 19.7098 142.759C19.6874 143.054 19.7036 143.349 19.7573 143.624C19.9866 143.49 21.3166 142.491 21.9842 142.554C22.4411 142.596 22.7498 142.989 22.6904 143.856C22.6012 145.156 21.6872 146.266 20.7201 146.176C20.1246 146.12 19.6836 145.645 19.3833 144.876C19.2366 144.966 18.9738 145.14 18.7611 145.12C17.9489 145.044 17.7569 143.789 17.8381 142.605C17.8854 141.91 18.0127 141.23 18.213 140.602C18.4132 139.975 18.6824 139.412 19.0052 138.948C19.328 138.483 19.698 138.125 20.0942 137.894C20.4904 137.663 20.9049 137.563 21.3142 137.601C21.7234 137.638 22.1193 137.812 22.4794 138.113C22.8394 138.413 23.1565 138.835 23.4124 139.353C23.6684 139.87 23.8583 140.475 23.9713 141.131C24.0843 141.787 24.1181 142.482 24.0709 143.177L24.0713 143.171Z" fill="#1E5B8F"/>
</g>
<g filter="url(#filter21_d_7570_60637)">
<path d="M265.268 116.753C265.155 116.438 265.002 116.167 264.819 115.959C264.623 115.74 264.41 115.57 264.185 115.454C263.936 115.323 263.683 115.215 263.427 115.131C263.054 115.022 262.686 114.863 262.327 114.656C262.058 114.492 261.923 114.236 261.91 113.87C261.897 113.7 261.914 113.527 261.961 113.375C262.007 113.222 262.081 113.096 262.172 113.013C262.417 112.805 262.692 112.698 262.971 112.702C263.268 112.676 263.567 112.745 263.85 112.905C264.08 113.038 264.295 113.234 264.486 113.484L264.522 113.533L265.12 112.17L265.088 112.127C264.806 111.767 264.488 111.493 264.148 111.319C263.742 111.123 263.321 111.043 262.902 111.081C262.623 111.096 262.348 111.172 262.084 111.307C261.835 111.431 261.601 111.62 261.391 111.866C261.191 112.1 261.027 112.403 260.908 112.755C260.789 113.126 260.737 113.547 260.757 113.969C260.764 114.368 260.834 114.759 260.959 115.106C261.075 115.411 261.228 115.677 261.407 115.887C261.591 116.102 261.794 116.27 262.008 116.385C262.224 116.503 262.445 116.596 262.668 116.664C262.975 116.764 263.235 116.858 263.441 116.944C263.612 117.008 263.778 117.105 263.935 117.233C264.04 117.314 264.13 117.439 264.197 117.594C264.253 117.747 264.284 117.92 264.287 118.096C264.297 118.274 264.273 118.451 264.218 118.603C264.162 118.755 264.079 118.874 263.98 118.944C263.709 119.158 263.41 119.27 263.107 119.271C262.779 119.301 262.45 119.222 262.139 119.039C261.869 118.874 261.619 118.626 261.404 118.31L261.37 118.259L260.696 119.579L260.725 119.624C261.292 120.534 262.121 120.963 263.187 120.903C263.488 120.888 263.786 120.811 264.073 120.674C264.339 120.55 264.589 120.353 264.814 120.093C265.02 119.849 265.189 119.533 265.31 119.167C265.432 118.783 265.486 118.349 265.466 117.913C265.458 117.508 265.39 117.11 265.268 116.753Z" fill="#D80D1E"/>
</g>
<g filter="url(#filter22_d_7570_60637)">
<path d="M270.9 118.748L270.868 118.809C270.692 119.139 270.469 119.404 270.216 119.584C269.935 119.782 269.628 119.881 269.319 119.874C269.059 119.882 268.801 119.8 268.564 119.634C268.327 119.469 268.118 119.223 267.952 118.917C267.791 118.617 267.668 118.275 267.587 117.908C267.502 117.531 267.458 117.135 267.458 116.736C267.455 116.332 267.496 115.93 267.579 115.547C267.66 115.179 267.783 114.836 267.943 114.535C268.102 114.244 268.301 114.009 268.526 113.847C268.772 113.675 269.041 113.589 269.311 113.595C269.61 113.584 269.907 113.679 270.177 113.873C270.418 114.056 270.631 114.317 270.8 114.637L270.831 114.695L271.632 113.508L271.603 113.459C271.331 112.993 270.999 112.617 270.627 112.356C270.042 111.948 269.388 111.825 268.756 112.004C268.123 112.183 267.542 112.655 267.09 113.356C266.815 113.795 266.599 114.312 266.453 114.878C266.301 115.47 266.224 116.101 266.227 116.738C266.223 117.396 266.297 118.049 266.445 118.667C266.576 119.237 266.787 119.756 267.061 120.189C267.336 120.622 267.669 120.958 268.037 121.176C268.445 121.421 268.881 121.543 269.32 121.533C269.78 121.547 270.236 121.403 270.655 121.113C271.023 120.853 271.353 120.479 271.623 120.016L271.65 119.97L270.9 118.748Z" fill="#D80D1E"/>
</g>
<g filter="url(#filter23_d_7570_60637)">
<path d="M277.288 115.348C277.108 114.794 276.87 114.298 276.586 113.885C276.3 113.47 275.971 113.151 275.619 112.946C274.862 112.524 274.053 112.62 273.37 113.215C273.055 113.499 272.78 113.891 272.561 114.368C272.347 114.843 272.188 115.387 272.092 115.972C271.899 117.204 271.997 118.542 272.367 119.707C272.545 120.259 272.781 120.756 273.062 121.171C273.346 121.589 273.673 121.909 274.025 122.113C274.782 122.535 275.591 122.438 276.274 121.843C276.59 121.558 276.866 121.166 277.087 120.69C277.42 119.956 277.617 119.062 277.652 118.114C277.688 117.167 277.561 116.206 277.288 115.349L277.288 115.348ZM276.503 118.519C276.456 118.901 276.368 119.26 276.241 119.577C276.114 119.894 275.949 120.16 275.756 120.359C275.547 120.57 275.309 120.692 275.062 120.716C274.817 120.752 274.568 120.688 274.334 120.529C274.117 120.374 273.917 120.149 273.746 119.867C273.574 119.585 273.433 119.253 273.33 118.89C273.225 118.522 273.157 118.13 273.128 117.731C273.098 117.328 273.108 116.924 273.157 116.534C273.203 116.153 273.291 115.794 273.417 115.476C273.545 115.16 273.71 114.894 273.903 114.695C274.112 114.484 274.35 114.362 274.597 114.338C274.842 114.302 275.091 114.366 275.324 114.525C275.544 114.679 275.745 114.904 275.918 115.187C276.09 115.471 276.232 115.806 276.334 116.174C276.438 116.538 276.506 116.927 276.536 117.322C276.564 117.725 276.552 118.13 276.503 118.519Z" fill="#D80D1E"/>
</g>
<g filter="url(#filter24_d_7570_60637)">
<path d="M250.553 113.978L253.189 113.99L253.177 118.084C252.883 118.49 252.546 118.815 252.18 119.044C251.767 119.318 251.237 119.455 250.594 119.452C250.109 119.463 249.629 119.325 249.18 119.045C248.783 118.795 248.424 118.422 248.125 117.95C247.834 117.483 247.609 116.929 247.463 116.323C247.308 115.677 247.231 114.993 247.237 114.305C247.236 113.61 247.32 112.921 247.485 112.274C247.64 111.657 247.873 111.093 248.17 110.615C248.468 110.137 248.826 109.755 249.221 109.492C249.646 109.211 250.104 109.072 250.566 109.083C250.859 109.078 251.151 109.13 251.435 109.238C251.685 109.334 251.927 109.477 252.155 109.662C252.363 109.834 252.556 110.047 252.728 110.297C252.89 110.536 253.038 110.799 253.168 111.083L252.305 112.251C252.114 111.817 251.871 111.443 251.588 111.15C251.28 110.857 250.922 110.711 250.56 110.73C250.266 110.721 249.974 110.819 249.709 111.016C249.462 111.201 249.243 111.463 249.065 111.785C248.882 112.115 248.743 112.497 248.654 112.909C248.559 113.347 248.51 113.806 248.511 114.268C248.504 114.76 248.56 115.248 248.675 115.707C248.779 116.117 248.936 116.49 249.135 116.806C249.33 117.112 249.564 117.353 249.822 117.513C250.084 117.678 250.364 117.762 250.647 117.762C251.237 117.764 251.697 117.549 252.027 117.115L252.031 115.573L250.555 115.566L250.553 113.978Z" fill="#D80D1E"/>
</g>
<g filter="url(#filter25_d_7570_60637)">
<path d="M259.683 118.525L259.45 113.052C259.361 110.955 258.409 109.729 256.815 109.84C255.257 109.948 254.55 111.032 254.452 111.174L254.422 111.217L255.061 112.501L255.097 112.456C255.542 111.959 255.898 111.538 256.703 111.482C257.509 111.426 258.192 111.691 258.272 113.232L258.282 113.487C258.282 113.487 257.47 113.416 256.836 113.46C255.026 113.586 254.324 115.193 254.405 117.081C254.491 119.103 255.514 119.96 256.629 119.883C257.56 119.818 258.186 119.18 258.513 118.504L258.577 119.489L259.737 119.408L259.734 119.334C259.713 119.113 259.697 118.841 259.683 118.525ZM258.397 116.011C258.453 117.322 257.653 118.255 256.875 118.309C256.097 118.363 255.657 117.891 255.616 116.935C255.554 115.478 256.246 115.017 257.037 114.962C257.476 114.937 257.916 114.955 258.355 115.017L258.397 116.011Z" fill="#D80D1E"/>
</g>
<g filter="url(#filter26_d_7570_60637)">
<path d="M236.622 115.442C236.916 116.08 237.69 116.638 238.409 116.631C239.86 116.617 240.975 115.175 240.967 113.835C240.965 113.383 240.609 112.989 239.69 113.431C238.985 113.702 236.622 115.442 236.622 115.442ZM244.845 112.289C244.875 117.626 241.95 121.974 238.414 122.007C236.724 122.031 235.094 121.057 233.88 119.296C233.703 119.035 233.549 118.734 233.558 118.338C233.556 117.847 233.894 117.523 234.172 117.52C234.349 117.518 234.514 117.706 234.641 117.894C235.128 118.651 235.712 119.252 236.359 119.661C237.006 120.07 237.701 120.278 238.403 120.272C241.406 120.243 243.658 116.677 243.633 112.282C243.608 107.924 241.278 104.383 238.351 104.41C237.656 104.42 236.969 104.634 236.33 105.041C235.69 105.447 235.111 106.039 234.626 106.781C234.14 107.523 233.757 108.402 233.499 109.366C233.241 110.33 233.113 111.361 233.122 112.401C233.139 113.287 233.275 115.021 234.058 115.014C234.336 115.011 234.637 114.801 234.864 114.691C234.672 113.957 234.565 113.18 234.548 112.393C234.529 109.03 236.263 106.297 238.337 106.277C239.7 106.264 240.714 107.065 241.419 108.945C241.447 109.018 241.465 109.098 241.472 109.181C241.474 109.201 241.474 109.221 241.47 109.24C241.467 109.259 241.46 109.277 241.452 109.292C241.443 109.307 241.432 109.319 241.42 109.328C241.408 109.336 241.395 109.34 241.381 109.339C241.335 109.333 241.291 109.303 241.256 109.255C240.392 108.283 239.571 107.988 238.65 107.997C236.921 108.013 235.739 109.801 235.792 112.367C235.79 112.906 235.869 113.439 236.021 113.927C236.474 113.641 239.063 111.577 240.449 111.564C241.397 111.555 242.093 112.208 242.102 113.793C242.116 116.169 240.4 118.355 238.393 118.374C237.157 118.386 236.176 117.608 235.44 116.27C235.151 116.462 234.636 116.826 234.195 116.83C232.509 116.846 231.923 114.606 231.911 112.442C231.903 111.173 232.062 109.914 232.379 108.738C232.697 107.561 233.167 106.491 233.761 105.586C234.356 104.682 235.065 103.962 235.846 103.468C236.628 102.974 237.467 102.715 238.316 102.705C239.165 102.696 240.008 102.937 240.796 103.414C241.583 103.891 242.301 104.595 242.907 105.486C243.513 106.377 243.996 107.437 244.329 108.607C244.661 109.776 244.837 111.031 244.845 112.3L244.845 112.289Z" fill="#1E5B8F"/>
</g>
<path d="M314.319 146.083V195.13M315.721 144.143V194.699M317.338 144.143L317.445 194.376M321.11 143.496L321.218 193.837M318.523 144.143V194.376M319.817 144.035C319.709 146.407 320.033 194.052 320.033 194.052M322.62 143.496L322.404 193.621M324.021 143.496V193.405M325.314 143.496L325.53 193.298M326.931 143.496L327.147 193.082M328.549 143.712L328.764 193.082L328.548 143.496M330.273 143.496V192.543M331.567 143.712L331.782 192.435M333.184 143.712L333.399 192.004M334.908 143.712V192.004M336.31 143.712L336.417 191.789M337.711 143.712L337.927 191.573M338.897 143.819L339.112 191.357" stroke="#000F30" stroke-width="0.646774"/>
<path d="M314.75 181.441L339.435 180.147M314.75 168.398H339.435M314.427 156.54H339.112" stroke="#35435E" stroke-width="0.646774"/>
<path d="M216.549 195.346L210.728 195.238L210.62 206.988L216.549 208.713V195.346Z" fill="#015489"/>
<path d="M278.423 170.014V193.405L287.478 192.974" stroke="#003264" stroke-width="0.431182" stroke-linecap="round"/>
<path d="M288.987 169.906V193.406L296.749 192.973" stroke="#003264" stroke-width="0.431182" stroke-linecap="round"/>
<path d="M297.827 169.045V192.544L306.882 192.111" stroke="#003264" stroke-width="0.431182" stroke-linecap="round"/>
<path d="M307.528 168.399V191.899L313.134 191.466" stroke="#003264" stroke-width="0.431182" stroke-linecap="round"/>
<path d="M313.672 149.318L279.717 148.24" stroke="#093867" stroke-width="0.431182" stroke-linecap="round"/>
<path d="M307.528 149.209V166.672" stroke="#093867" stroke-width="0.431182" stroke-linecap="round"/>
<path d="M297.827 148.997V166.46" stroke="#093867" stroke-width="0.431182" stroke-linecap="round"/>
<path d="M288.987 148.35V165.813" stroke="#093867" stroke-width="0.431182" stroke-linecap="round"/>
<path d="M279.717 148.35V165.813" stroke="#093867" stroke-width="0.431182" stroke-linecap="round"/>
<path d="M220.215 132.059L5.70117 154.718V156.972L220.215 136.599V132.059Z" fill="white" stroke="#999999" stroke-width="0.122143"/>
</g>
<defs>
<filter id="filter0_d_7570_60637" x="1.97537" y="91.0735" width="344.504" height="121.305" filterUnits="userSpaceOnUse" color-interpolation-filters="sRGB">
<feFlood flood-opacity="0" result="BackgroundImageFix"/>
<feColorMatrix in="SourceAlpha" type="matrix" values="0 0 0 0 0 0 0 0 0 0 0 0 0 0 0 0 0 0 127 0" result="hardAlpha"/>
<feOffset dx="-1.22143" dy="1.22143"/>
<feGaussianBlur stdDeviation="1.22143"/>
<feComposite in2="hardAlpha" operator="out"/>
<feColorMatrix type="matrix" values="0 0 0 0 0 0 0 0 0 0 0 0 0 0 0 0 0 0 0.25 0"/>
<feBlend mode="normal" in2="BackgroundImageFix" result="effect1_dropShadow_7570_60637"/>
<feBlend mode="normal" in="SourceGraphic" in2="effect1_dropShadow_7570_60637" result="shape"/>
</filter>
<filter id="filter1_i_7570_60637" x="8.93359" y="141.882" width="157.382" height="53.2511" filterUnits="userSpaceOnUse" color-interpolation-filters="sRGB">
<feFlood flood-opacity="0" result="BackgroundImageFix"/>
<feBlend mode="normal" in="SourceGraphic" in2="BackgroundImageFix" result="shape"/>
<feColorMatrix in="SourceAlpha" type="matrix" values="0 0 0 0 0 0 0 0 0 0 0 0 0 0 0 0 0 0 127 0" result="hardAlpha"/>
<feOffset dy="2.58709"/>
<feGaussianBlur stdDeviation="0.862365"/>
<feComposite in2="hardAlpha" operator="arithmetic" k2="-1" k3="1"/>
<feColorMatrix type="matrix" values="0 0 0 0 0 0 0 0 0 0 0 0 0 0 0 0 0 0 0.25 0"/>
<feBlend mode="normal" in2="shape" result="effect1_innerShadow_7570_60637"/>
</filter>
<filter id="filter2_i_7570_60637" x="19.2832" y="159.666" width="7.76126" height="3.51224" filterUnits="userSpaceOnUse" color-interpolation-filters="sRGB">
<feFlood flood-opacity="0" result="BackgroundImageFix"/>
<feBlend mode="normal" in="SourceGraphic" in2="BackgroundImageFix" result="shape"/>
<feColorMatrix in="SourceAlpha" type="matrix" values="0 0 0 0 0 0 0 0 0 0 0 0 0 0 0 0 0 0 127 0" result="hardAlpha"/>
<feOffset dx="0.646774" dy="0.431182"/>
<feGaussianBlur stdDeviation="0.215591"/>
<feComposite in2="hardAlpha" operator="arithmetic" k2="-1" k3="1"/>
<feColorMatrix type="matrix" values="0 0 0 0 0.8 0 0 0 0 0.8 0 0 0 0 0.8 0 0 0 1 0"/>
<feBlend mode="normal" in2="shape" result="effect1_innerShadow_7570_60637"/>
</filter>
<filter id="filter3_i_7570_60637" x="16.2646" y="164.087" width="7.3306" height="4.92825" filterUnits="userSpaceOnUse" color-interpolation-filters="sRGB">
<feFlood flood-opacity="0" result="BackgroundImageFix"/>
<feBlend mode="normal" in="SourceGraphic" in2="BackgroundImageFix" result="shape"/>
<feColorMatrix in="SourceAlpha" type="matrix" values="0 0 0 0 0 0 0 0 0 0 0 0 0 0 0 0 0 0 127 0" result="hardAlpha"/>
<feOffset dx="0.646774" dy="0.431182"/>
<feGaussianBlur stdDeviation="0.215591"/>
<feComposite in2="hardAlpha" operator="arithmetic" k2="-1" k3="1"/>
<feColorMatrix type="matrix" values="0 0 0 0 0.8 0 0 0 0 0.8 0 0 0 0 0.8 0 0 0 1 0"/>
<feBlend mode="normal" in2="shape" result="effect1_innerShadow_7570_60637"/>
</filter>
<filter id="filter4_i_7570_60637" x="22.7314" y="164.519" width="7.3306" height="4.49661" filterUnits="userSpaceOnUse" color-interpolation-filters="sRGB">
<feFlood flood-opacity="0" result="BackgroundImageFix"/>
<feBlend mode="normal" in="SourceGraphic" in2="BackgroundImageFix" result="shape"/>
<feColorMatrix in="SourceAlpha" type="matrix" values="0 0 0 0 0 0 0 0 0 0 0 0 0 0 0 0 0 0 127 0" result="hardAlpha"/>
<feOffset dx="0.646774" dy="0.431182"/>
<feGaussianBlur stdDeviation="0.215591"/>
<feComposite in2="hardAlpha" operator="arithmetic" k2="-1" k3="1"/>
<feColorMatrix type="matrix" values="0 0 0 0 0.8 0 0 0 0 0.8 0 0 0 0 0.8 0 0 0 1 0"/>
<feBlend mode="normal" in2="shape" result="effect1_innerShadow_7570_60637"/>
</filter>
<filter id="filter5_d_7570_60637" x="215.902" y="136.384" width="59.8268" height="60.7968" filterUnits="userSpaceOnUse" color-interpolation-filters="sRGB">
<feFlood flood-opacity="0" result="BackgroundImageFix"/>
<feColorMatrix in="SourceAlpha" type="matrix" values="0 0 0 0 0 0 0 0 0 0 0 0 0 0 0 0 0 0 127 0" result="hardAlpha"/>
<feOffset dy="1.29355"/>
<feGaussianBlur stdDeviation="0.323387"/>
<feComposite in2="hardAlpha" operator="out"/>
<feColorMatrix type="matrix" values="0 0 0 0 0 0 0 0 0 0 0 0 0 0 0 0 0 0 0.25 0"/>
<feBlend mode="normal" in2="BackgroundImageFix" result="effect1_dropShadow_7570_60637"/>
<feBlend mode="normal" in="SourceGraphic" in2="effect1_dropShadow_7570_60637" result="shape"/>
</filter>
<filter id="filter6_d_7570_60637" x="219.352" y="132.069" width="126.552" height="12.8273" filterUnits="userSpaceOnUse" color-interpolation-filters="sRGB">
<feFlood flood-opacity="0" result="BackgroundImageFix"/>
<feColorMatrix in="SourceAlpha" type="matrix" values="0 0 0 0 0 0 0 0 0 0 0 0 0 0 0 0 0 0 127 0" result="hardAlpha"/>
<feOffset dy="0.862365"/>
<feGaussianBlur stdDeviation="0.431182"/>
<feComposite in2="hardAlpha" operator="out"/>
<feColorMatrix type="matrix" values="0 0 0 0 0 0 0 0 0 0 0 0 0 0 0 0 0 0 0.25 0"/>
<feBlend mode="normal" in2="BackgroundImageFix" result="effect1_dropShadow_7570_60637"/>
<feBlend mode="normal" in="SourceGraphic" in2="effect1_dropShadow_7570_60637" result="shape"/>
</filter>
<filter id="filter7_i_7570_60637" x="171.49" y="137.029" width="45.2744" height="59.0723" filterUnits="userSpaceOnUse" color-interpolation-filters="sRGB">
<feFlood flood-opacity="0" result="BackgroundImageFix"/>
<feBlend mode="normal" in="SourceGraphic" in2="BackgroundImageFix" result="shape"/>
<feColorMatrix in="SourceAlpha" type="matrix" values="0 0 0 0 0 0 0 0 0 0 0 0 0 0 0 0 0 0 127 0" result="hardAlpha"/>
<feOffset dy="0.862365"/>
<feGaussianBlur stdDeviation="0.431182"/>
<feComposite in2="hardAlpha" operator="arithmetic" k2="-1" k3="1"/>
<feColorMatrix type="matrix" values="0 0 0 0 0 0 0 0 0 0 0 0 0 0 0 0 0 0 0.25 0"/>
<feBlend mode="normal" in2="shape" result="effect1_innerShadow_7570_60637"/>
</filter>
<filter id="filter8_d_7570_60637" x="273.788" y="139.508" width="67.2643" height="6.57583" filterUnits="userSpaceOnUse" color-interpolation-filters="sRGB">
<feFlood flood-opacity="0" result="BackgroundImageFix"/>
<feColorMatrix in="SourceAlpha" type="matrix" values="0 0 0 0 0 0 0 0 0 0 0 0 0 0 0 0 0 0 127 0" result="hardAlpha"/>
<feOffset dy="1.07796"/>
<feGaussianBlur stdDeviation="0.538978"/>
<feComposite in2="hardAlpha" operator="out"/>
<feColorMatrix type="matrix" values="0 0 0 0 0 0 0 0 0 0 0 0 0 0 0 0 0 0 0.25 0"/>
<feBlend mode="normal" in2="BackgroundImageFix" result="effect1_dropShadow_7570_60637"/>
<feBlend mode="normal" in="SourceGraphic" in2="effect1_dropShadow_7570_60637" result="shape"/>
</filter>
<filter id="filter9_d_7570_60637" x="170.35" y="115.999" width="7.13082" height="10.3144" filterUnits="userSpaceOnUse" color-interpolation-filters="sRGB">
<feFlood flood-opacity="0" result="BackgroundImageFix"/>
<feColorMatrix in="SourceAlpha" type="matrix" values="0 0 0 0 0 0 0 0 0 0 0 0 0 0 0 0 0 0 127 0" result="hardAlpha"/>
<feOffset dx="0.318837" dy="0.318837"/>
<feGaussianBlur stdDeviation="0.318837"/>
<feComposite in2="hardAlpha" operator="out"/>
<feColorMatrix type="matrix" values="0 0 0 0 0 0 0 0 0 0 0 0 0 0 0 0 0 0 0.25 0"/>
<feBlend mode="normal" in2="BackgroundImageFix" result="effect1_dropShadow_7570_60637"/>
<feBlend mode="normal" in="SourceGraphic" in2="effect1_dropShadow_7570_60637" result="shape"/>
</filter>
<filter id="filter10_d_7570_60637" x="177.125" y="114.935" width="7.66011" height="10.3671" filterUnits="userSpaceOnUse" color-interpolation-filters="sRGB">
<feFlood flood-opacity="0" result="BackgroundImageFix"/>
<feColorMatrix in="SourceAlpha" type="matrix" values="0 0 0 0 0 0 0 0 0 0 0 0 0 0 0 0 0 0 127 0" result="hardAlpha"/>
<feOffset dx="0.318837" dy="0.318837"/>
<feGaussianBlur stdDeviation="0.318837"/>
<feComposite in2="hardAlpha" operator="out"/>
<feColorMatrix type="matrix" values="0 0 0 0 0 0 0 0 0 0 0 0 0 0 0 0 0 0 0.25 0"/>
<feBlend mode="normal" in2="BackgroundImageFix" result="effect1_dropShadow_7570_60637"/>
<feBlend mode="normal" in="SourceGraphic" in2="effect1_dropShadow_7570_60637" result="shape"/>
</filter>
<filter id="filter11_d_7570_60637" x="183.81" y="113.857" width="8.52535" height="10.3261" filterUnits="userSpaceOnUse" color-interpolation-filters="sRGB">
<feFlood flood-opacity="0" result="BackgroundImageFix"/>
<feColorMatrix in="SourceAlpha" type="matrix" values="0 0 0 0 0 0 0 0 0 0 0 0 0 0 0 0 0 0 127 0" result="hardAlpha"/>
<feOffset dx="0.318837" dy="0.318837"/>
<feGaussianBlur stdDeviation="0.318837"/>
<feComposite in2="hardAlpha" operator="out"/>
<feColorMatrix type="matrix" values="0 0 0 0 0 0 0 0 0 0 0 0 0 0 0 0 0 0 0.25 0"/>
<feBlend mode="normal" in2="BackgroundImageFix" result="effect1_dropShadow_7570_60637"/>
<feBlend mode="normal" in="SourceGraphic" in2="effect1_dropShadow_7570_60637" result="shape"/>
</filter>
<filter id="filter12_d_7570_60637" x="156.21" y="117.736" width="7.74215" height="10.332" filterUnits="userSpaceOnUse" color-interpolation-filters="sRGB">
<feFlood flood-opacity="0" result="BackgroundImageFix"/>
<feColorMatrix in="SourceAlpha" type="matrix" values="0 0 0 0 0 0 0 0 0 0 0 0 0 0 0 0 0 0 127 0" result="hardAlpha"/>
<feOffset dx="0.318837" dy="0.318837"/>
<feGaussianBlur stdDeviation="0.318837"/>
<feComposite in2="hardAlpha" operator="out"/>
<feColorMatrix type="matrix" values="0 0 0 0 0 0 0 0 0 0 0 0 0 0 0 0 0 0 0.25 0"/>
<feBlend mode="normal" in2="BackgroundImageFix" result="effect1_dropShadow_7570_60637"/>
<feBlend mode="normal" in="SourceGraphic" in2="effect1_dropShadow_7570_60637" result="shape"/>
</filter>
<filter id="filter13_d_7570_60637" x="163.489" y="117.073" width="7.30269" height="10.3066" filterUnits="userSpaceOnUse" color-interpolation-filters="sRGB">
<feFlood flood-opacity="0" result="BackgroundImageFix"/>
<feColorMatrix in="SourceAlpha" type="matrix" values="0 0 0 0 0 0 0 0 0 0 0 0 0 0 0 0 0 0 127 0" result="hardAlpha"/>
<feOffset dx="0.318837" dy="0.318837"/>
<feGaussianBlur stdDeviation="0.318837"/>
<feComposite in2="hardAlpha" operator="out"/>
<feColorMatrix type="matrix" values="0 0 0 0 0 0 0 0 0 0 0 0 0 0 0 0 0 0 0.25 0"/>
<feBlend mode="normal" in2="BackgroundImageFix" result="effect1_dropShadow_7570_60637"/>
<feBlend mode="normal" in="SourceGraphic" in2="effect1_dropShadow_7570_60637" result="shape"/>
</filter>
<filter id="filter14_d_7570_60637" x="141.459" y="114.988" width="14.3164" height="18.4082" filterUnits="userSpaceOnUse" color-interpolation-filters="sRGB">
<feFlood flood-opacity="0" result="BackgroundImageFix"/>
<feColorMatrix in="SourceAlpha" type="matrix" values="0 0 0 0 0 0 0 0 0 0 0 0 0 0 0 0 0 0 127 0" result="hardAlpha"/>
<feOffset dx="0.318837" dy="0.318837"/>
<feGaussianBlur stdDeviation="0.318837"/>
<feComposite in2="hardAlpha" operator="out"/>
<feColorMatrix type="matrix" values="0 0 0 0 0 0 0 0 0 0 0 0 0 0 0 0 0 0 0.25 0"/>
<feBlend mode="normal" in2="BackgroundImageFix" result="effect1_dropShadow_7570_60637"/>
<feBlend mode="normal" in="SourceGraphic" in2="effect1_dropShadow_7570_60637" result="shape"/>
</filter>
<filter id="filter15_d_7570_60637" x="31.549" y="137.951" width="3.46221" height="6.21319" filterUnits="userSpaceOnUse" color-interpolation-filters="sRGB">
<feFlood flood-opacity="0" result="BackgroundImageFix"/>
<feColorMatrix in="SourceAlpha" type="matrix" values="0 0 0 0 0 0 0 0 0 0 0 0 0 0 0 0 0 0 127 0" result="hardAlpha"/>
<feOffset dx="0.158033" dy="0.158033"/>
<feGaussianBlur stdDeviation="0.158033"/>
<feComposite in2="hardAlpha" operator="out"/>
<feColorMatrix type="matrix" values="0 0 0 0 0 0 0 0 0 0 0 0 0 0 0 0 0 0 0.25 0"/>
<feBlend mode="normal" in2="BackgroundImageFix" result="effect1_dropShadow_7570_60637"/>
<feBlend mode="normal" in="SourceGraphic" in2="effect1_dropShadow_7570_60637" result="shape"/>
</filter>
<filter id="filter16_d_7570_60637" x="34.8205" y="137.268" width="3.71416" height="6.24444" filterUnits="userSpaceOnUse" color-interpolation-filters="sRGB">
<feFlood flood-opacity="0" result="BackgroundImageFix"/>
<feColorMatrix in="SourceAlpha" type="matrix" values="0 0 0 0 0 0 0 0 0 0 0 0 0 0 0 0 0 0 127 0" result="hardAlpha"/>
<feOffset dx="0.158033" dy="0.158033"/>
<feGaussianBlur stdDeviation="0.158033"/>
<feComposite in2="hardAlpha" operator="out"/>
<feColorMatrix type="matrix" values="0 0 0 0 0 0 0 0 0 0 0 0 0 0 0 0 0 0 0.25 0"/>
<feBlend mode="normal" in2="BackgroundImageFix" result="effect1_dropShadow_7570_60637"/>
<feBlend mode="normal" in="SourceGraphic" in2="effect1_dropShadow_7570_60637" result="shape"/>
</filter>
<filter id="filter17_d_7570_60637" x="38.0383" y="136.575" width="4.11748" height="6.22002" filterUnits="userSpaceOnUse" color-interpolation-filters="sRGB">
<feFlood flood-opacity="0" result="BackgroundImageFix"/>
<feColorMatrix in="SourceAlpha" type="matrix" values="0 0 0 0 0 0 0 0 0 0 0 0 0 0 0 0 0 0 127 0" result="hardAlpha"/>
<feOffset dx="0.158033" dy="0.158033"/>
<feGaussianBlur stdDeviation="0.158033"/>
<feComposite in2="hardAlpha" operator="out"/>
<feColorMatrix type="matrix" values="0 0 0 0 0 0 0 0 0 0 0 0 0 0 0 0 0 0 0.25 0"/>
<feBlend mode="normal" in2="BackgroundImageFix" result="effect1_dropShadow_7570_60637"/>
<feBlend mode="normal" in="SourceGraphic" in2="effect1_dropShadow_7570_60637" result="shape"/>
</filter>
<filter id="filter18_d_7570_60637" x="24.758" y="139.081" width="3.75225" height="6.22393" filterUnits="userSpaceOnUse" color-interpolation-filters="sRGB">
<feFlood flood-opacity="0" result="BackgroundImageFix"/>
<feColorMatrix in="SourceAlpha" type="matrix" values="0 0 0 0 0 0 0 0 0 0 0 0 0 0 0 0 0 0 127 0" result="hardAlpha"/>
<feOffset dx="0.158033" dy="0.158033"/>
<feGaussianBlur stdDeviation="0.158033"/>
<feComposite in2="hardAlpha" operator="out"/>
<feColorMatrix type="matrix" values="0 0 0 0 0 0 0 0 0 0 0 0 0 0 0 0 0 0 0.25 0"/>
<feBlend mode="normal" in2="BackgroundImageFix" result="effect1_dropShadow_7570_60637"/>
<feBlend mode="normal" in="SourceGraphic" in2="effect1_dropShadow_7570_60637" result="shape"/>
</filter>
<filter id="filter19_d_7570_60637" x="28.2511" y="138.648" width="3.54326" height="6.21026" filterUnits="userSpaceOnUse" color-interpolation-filters="sRGB">
<feFlood flood-opacity="0" result="BackgroundImageFix"/>
<feColorMatrix in="SourceAlpha" type="matrix" values="0 0 0 0 0 0 0 0 0 0 0 0 0 0 0 0 0 0 127 0" result="hardAlpha"/>
<feOffset dx="0.158033" dy="0.158033"/>
<feGaussianBlur stdDeviation="0.158033"/>
<feComposite in2="hardAlpha" operator="out"/>
<feColorMatrix type="matrix" values="0 0 0 0 0 0 0 0 0 0 0 0 0 0 0 0 0 0 0.25 0"/>
<feBlend mode="normal" in2="BackgroundImageFix" result="effect1_dropShadow_7570_60637"/>
<feBlend mode="normal" in="SourceGraphic" in2="effect1_dropShadow_7570_60637" result="shape"/>
</filter>
<filter id="filter20_d_7570_60637" x="17.6633" y="137.435" width="6.90264" height="11.2112" filterUnits="userSpaceOnUse" color-interpolation-filters="sRGB">
<feFlood flood-opacity="0" result="BackgroundImageFix"/>
<feColorMatrix in="SourceAlpha" type="matrix" values="0 0 0 0 0 0 0 0 0 0 0 0 0 0 0 0 0 0 127 0" result="hardAlpha"/>
<feOffset dx="0.158033" dy="0.158033"/>
<feGaussianBlur stdDeviation="0.158033"/>
<feComposite in2="hardAlpha" operator="out"/>
<feColorMatrix type="matrix" values="0 0 0 0 0 0 0 0 0 0 0 0 0 0 0 0 0 0 0.25 0"/>
<feBlend mode="normal" in2="BackgroundImageFix" result="effect1_dropShadow_7570_60637"/>
<feBlend mode="normal" in="SourceGraphic" in2="effect1_dropShadow_7570_60637" result="shape"/>
</filter>
<filter id="filter21_d_7570_60637" x="259.787" y="111.072" width="5.68292" height="10.7454" filterUnits="userSpaceOnUse" color-interpolation-filters="sRGB">
<feFlood flood-opacity="0" result="BackgroundImageFix"/>
<feColorMatrix in="SourceAlpha" type="matrix" values="0 0 0 0 0 0 0 0 0 0 0 0 0 0 0 0 0 0 127 0" result="hardAlpha"/>
<feOffset dx="-0.606324" dy="0.606324"/>
<feGaussianBlur stdDeviation="0.151581"/>
<feComposite in2="hardAlpha" operator="out"/>
<feColorMatrix type="matrix" values="0 0 0 0 0 0 0 0 0 0 0 0 0 0 0 0 0 0 0.25 0"/>
<feBlend mode="normal" in2="BackgroundImageFix" result="effect1_dropShadow_7570_60637"/>
<feBlend mode="normal" in="SourceGraphic" in2="effect1_dropShadow_7570_60637" result="shape"/>
</filter>
<filter id="filter22_d_7570_60637" x="265.317" y="111.924" width="6.33331" height="10.5198" filterUnits="userSpaceOnUse" color-interpolation-filters="sRGB">
<feFlood flood-opacity="0" result="BackgroundImageFix"/>
<feColorMatrix in="SourceAlpha" type="matrix" values="0 0 0 0 0 0 0 0 0 0 0 0 0 0 0 0 0 0 127 0" result="hardAlpha"/>
<feOffset dx="-0.606324" dy="0.606324"/>
<feGaussianBlur stdDeviation="0.151581"/>
<feComposite in2="hardAlpha" operator="out"/>
<feColorMatrix type="matrix" values="0 0 0 0 0 0 0 0 0 0 0 0 0 0 0 0 0 0 0.25 0"/>
<feBlend mode="normal" in2="BackgroundImageFix" result="effect1_dropShadow_7570_60637"/>
<feBlend mode="normal" in="SourceGraphic" in2="effect1_dropShadow_7570_60637" result="shape"/>
</filter>
<filter id="filter23_d_7570_60637" x="271.086" y="112.687" width="6.57257" height="10.595" filterUnits="userSpaceOnUse" color-interpolation-filters="sRGB">
<feFlood flood-opacity="0" result="BackgroundImageFix"/>
<feColorMatrix in="SourceAlpha" type="matrix" values="0 0 0 0 0 0 0 0 0 0 0 0 0 0 0 0 0 0 127 0" result="hardAlpha"/>
<feOffset dx="-0.606324" dy="0.606324"/>
<feGaussianBlur stdDeviation="0.151581"/>
<feComposite in2="hardAlpha" operator="out"/>
<feColorMatrix type="matrix" values="0 0 0 0 0 0 0 0 0 0 0 0 0 0 0 0 0 0 0.25 0"/>
<feBlend mode="normal" in2="BackgroundImageFix" result="effect1_dropShadow_7570_60637"/>
<feBlend mode="normal" in="SourceGraphic" in2="effect1_dropShadow_7570_60637" result="shape"/>
</filter>
<filter id="filter24_d_7570_60637" x="246.327" y="109.082" width="6.86261" height="11.2806" filterUnits="userSpaceOnUse" color-interpolation-filters="sRGB">
<feFlood flood-opacity="0" result="BackgroundImageFix"/>
<feColorMatrix in="SourceAlpha" type="matrix" values="0 0 0 0 0 0 0 0 0 0 0 0 0 0 0 0 0 0 127 0" result="hardAlpha"/>
<feOffset dx="-0.606324" dy="0.606324"/>
<feGaussianBlur stdDeviation="0.151581"/>
<feComposite in2="hardAlpha" operator="out"/>
<feColorMatrix type="matrix" values="0 0 0 0 0 0 0 0 0 0 0 0 0 0 0 0 0 0 0.25 0"/>
<feBlend mode="normal" in2="BackgroundImageFix" result="effect1_dropShadow_7570_60637"/>
<feBlend mode="normal" in="SourceGraphic" in2="effect1_dropShadow_7570_60637" result="shape"/>
</filter>
<filter id="filter25_d_7570_60637" x="253.489" y="109.833" width="6.24835" height="10.9642" filterUnits="userSpaceOnUse" color-interpolation-filters="sRGB">
<feFlood flood-opacity="0" result="BackgroundImageFix"/>
<feColorMatrix in="SourceAlpha" type="matrix" values="0 0 0 0 0 0 0 0 0 0 0 0 0 0 0 0 0 0 127 0" result="hardAlpha"/>
<feOffset dx="-0.606324" dy="0.606324"/>
<feGaussianBlur stdDeviation="0.151581"/>
<feComposite in2="hardAlpha" operator="out"/>
<feColorMatrix type="matrix" values="0 0 0 0 0 0 0 0 0 0 0 0 0 0 0 0 0 0 0.25 0"/>
<feBlend mode="normal" in2="BackgroundImageFix" result="effect1_dropShadow_7570_60637"/>
<feBlend mode="normal" in="SourceGraphic" in2="effect1_dropShadow_7570_60637" result="shape"/>
</filter>
<filter id="filter26_d_7570_60637" x="231.001" y="102.705" width="13.8441" height="20.2122" filterUnits="userSpaceOnUse" color-interpolation-filters="sRGB">
<feFlood flood-opacity="0" result="BackgroundImageFix"/>
<feColorMatrix in="SourceAlpha" type="matrix" values="0 0 0 0 0 0 0 0 0 0 0 0 0 0 0 0 0 0 127 0" result="hardAlpha"/>
<feOffset dx="-0.606324" dy="0.606324"/>
<feGaussianBlur stdDeviation="0.151581"/>
<feComposite in2="hardAlpha" operator="out"/>
<feColorMatrix type="matrix" values="0 0 0 0 0 0 0 0 0 0 0 0 0 0 0 0 0 0 0.25 0"/>
<feBlend mode="normal" in2="BackgroundImageFix" result="effect1_dropShadow_7570_60637"/>
<feBlend mode="normal" in="SourceGraphic" in2="effect1_dropShadow_7570_60637" result="shape"/>
</filter>
<linearGradient id="paint0_linear_7570_60637" x1="75.9832" y1="154.815" x2="75.9832" y2="190.604" gradientUnits="userSpaceOnUse">
<stop stop-color="#838383"/>
<stop offset="1" stop-color="#C5C5C5"/>
</linearGradient>
<linearGradient id="paint1_linear_7570_60637" x1="233.796" y1="115.902" x2="315.397" y2="127.76" gradientUnits="userSpaceOnUse">
<stop stop-color="#D8D4D2"/>
<stop offset="1" stop-color="white"/>
</linearGradient>
</defs>
</svg>
